HIERARCHY
ROOT root
{
	OFFSET 0.000000 0.000000 0.000000
	CHANNELS 6 Xposition Yposition Zposition Zrotation Yrotation Xrotation
	JOINT lhip
	{
		OFFSET 0.058581 -0.082280 -0.017664
		CHANNELS 3 Zrotation Yrotation Xrotation
		JOINT lknee
		{
			OFFSET 0.043451 -0.386469 0.008037
			CHANNELS 3 Zrotation Yrotation Xrotation
			JOINT lankle
			{
				OFFSET -0.014790 -0.426874 -0.037428
				CHANNELS 3 Zrotation Yrotation Xrotation
				JOINT ltoe
				{
					OFFSET 0.041054 -0.060286 0.122042
					CHANNELS 3 Zrotation Yrotation Xrotation
					End Site
					{
						OFFSET 0.000000 0.000000 0.000000
					}
				}
			}
		}
	}
	JOINT rhip
	{
		OFFSET -0.060310 -0.090513 -0.013543
		CHANNELS 3 Zrotation Yrotation Xrotation
		JOINT rknee
		{
			OFFSET -0.043257 -0.383688 -0.004843
			CHANNELS 3 Zrotation Yrotation Xrotation
			JOINT rankle
			{
				OFFSET 0.019056 -0.420046 -0.034562
				CHANNELS 3 Zrotation Yrotation Xrotation
				JOINT rtoe
				{
					OFFSET -0.034840 -0.062106 0.130323
					CHANNELS 3 Zrotation Yrotation Xrotation
					End Site
					{
						OFFSET 0.000000 0.000000 0.000000
					}
				}
			}
		}
	}
	JOINT lowerback
	{
		OFFSET 0.004439 0.124404 -0.038385
		CHANNELS 3 Zrotation Yrotation Xrotation
		JOINT upperback
		{
			OFFSET 0.004488 0.137956 0.026820
			CHANNELS 3 Zrotation Yrotation Xrotation
			JOINT chest
			{
				OFFSET -0.002265 0.056032 0.002855
				CHANNELS 3 Zrotation Yrotation Xrotation
				JOINT lowerneck
				{
					OFFSET -0.013390 0.211636 -0.033468
					CHANNELS 3 Zrotation Yrotation Xrotation
					JOINT upperneck
					{
						OFFSET 0.010113 0.088937 0.050410
						CHANNELS 3 Zrotation Yrotation Xrotation
						End Site
						{
							OFFSET 0.000000 0.000000 0.000000
						}
					}
				}
				JOINT lclavicle
				{
					OFFSET 0.071702 0.114000 -0.018898
					CHANNELS 3 Zrotation Yrotation Xrotation
					JOINT lshoulder
					{
						OFFSET 0.122921 0.045205 -0.019046
						CHANNELS 3 Zrotation Yrotation Xrotation
						JOINT lelbow
						{
							OFFSET 0.255332 -0.015649 -0.022946
							CHANNELS 3 Zrotation Yrotation Xrotation
							JOINT lwrist
							{
								OFFSET 0.265709 0.012698 -0.007375
								CHANNELS 3 Zrotation Yrotation Xrotation
								End Site
								{
									OFFSET 0.000000 0.000000 0.000000
								}
							}
						}
					}
				}
				JOINT rclavicle
				{
					OFFSET -0.082954 0.112472 -0.023707
					CHANNELS 3 Zrotation Yrotation Xrotation
					JOINT rshoulder
					{
						OFFSET -0.113228 0.046853 -0.008472
						CHANNELS 3 Zrotation Yrotation Xrotation
						JOINT relbow
						{
							OFFSET -0.260127 -0.014369 -0.031269
							CHANNELS 3 Zrotation Yrotation Xrotation
							JOINT rwrist
							{
								OFFSET -0.269108 0.006794 -0.006027
								CHANNELS 3 Zrotation Yrotation Xrotation
								End Site
								{
									OFFSET 0.000000 0.000000 0.000000
								}
							}
						}
					}
				}
			}
		}
	}
}
MOTION
Frames: 11
Frame Time: 0.033333
0.002567 -0.544757 0.798853 145.801329 3.352221 109.669368 -0.697720 -4.489844 -58.861405 -8.413070 21.745248 93.866039 3.860593 5.498859 -17.046607 0.000000 -0.000000 0.000000 -10.093383 -5.477766 -17.711004 13.441958 1.828116 61.843218 4.628567 4.694537 -27.142932 0.000000 -0.000000 0.000000 6.575125 11.018813 34.502515 3.238618 0.218877 5.346820 1.725899 3.669543 0.948422 6.779441 0.142891 -15.722550 1.995904 1.596664 -13.088987 -24.716774 -11.561232 2.785719 -40.217647 23.284106 10.932393 -3.867320 -26.669082 24.397623 4.776358 -6.151353 15.144891 14.097885 23.048082 -4.694875 6.254913 14.149091 -27.581629 -26.991786 27.122480 -53.196764 19.625188 11.769086 -35.226327 
0.078848 -0.452009 0.799142 149.862831 3.486970 110.175915 0.446060 -7.442483 -68.020011 -8.876275 23.628224 78.457320 5.191510 4.957857 -16.997095 0.000000 -0.000000 0.000000 -9.137579 -4.169216 -2.413828 15.171587 9.182698 47.212558 12.169120 12.327425 -10.214033 0.000000 -0.000000 0.000000 4.406602 14.352404 32.405306 5.544595 -4.226056 5.403473 3.292250 1.769757 3.399573 7.872756 3.102144 -12.921499 1.785460 1.715804 -13.275369 -22.665838 -5.153185 3.868576 -47.547952 28.347135 8.005603 -3.251236 -23.543434 22.437032 1.978062 -4.360009 10.492841 15.125360 12.354503 -9.628129 13.451573 15.282728 -19.979126 -32.407966 33.582667 -48.088148 23.389015 7.649340 -29.042336 
0.161982 -0.360061 0.794897 151.455646 5.049474 110.264442 -0.716909 -4.844498 -70.134560 -9.999264 26.589310 60.107743 3.832705 0.722604 -14.733895 0.000000 -0.000000 0.000000 -4.252559 -2.498710 10.904490 8.428885 15.048526 33.450234 17.580220 10.823161 4.627869 0.000000 -0.000000 0.000000 0.889905 16.369027 30.788060 5.934903 -6.901422 6.379643 4.515948 0.039244 4.078606 9.009222 4.982805 -9.780827 2.270738 6.459891 -13.375353 -22.216321 0.656893 5.878583 -58.735963 30.055524 0.911672 0.584815 -19.589582 17.357460 -0.333481 -3.207243 3.376883 15.741960 5.001006 -11.613165 28.185351 16.374777 -12.778916 -42.765990 39.070543 -58.232794 25.044686 15.627734 -46.322722 
0.239470 -0.268018 0.780298 151.483613 9.060547 109.200267 -1.758223 -2.035089 -67.513540 -10.257269 27.241786 50.063482 10.747958 5.158490 -15.008723 0.000000 -0.000000 0.000000 -2.700445 -4.643861 15.773145 4.322969 6.564211 38.026613 10.639727 0.007584 2.101235 0.000000 -0.000000 0.000000 0.617035 14.868123 31.173827 5.041556 -6.987245 5.371713 4.153552 -1.305370 5.387398 8.735558 4.762320 -9.681589 1.907843 12.708480 -11.652906 -26.885033 3.512235 7.259565 -66.646019 27.906428 -4.391591 2.724817 -15.286015 11.660796 -0.421327 -0.605401 -3.467450 18.633171 1.208530 -12.067034 36.299211 16.070555 -9.208476 -52.035301 46.392088 -64.549746 24.292820 18.099224 -51.530398 
0.306934 -0.175778 0.769121 151.130259 13.000439 108.467096 -1.356122 -1.529714 -63.308295 -4.325217 26.902424 63.357792 16.967871 6.651967 -27.594024 0.000000 -0.000000 0.000000 -4.640598 -6.998739 11.362324 2.660542 -0.769899 57.250299 9.577312 -3.214343 0.876815 0.000000 -0.000000 0.000000 1.312978 12.276947 32.820977 4.338541 -7.080593 5.921503 4.195423 -1.241497 3.130277 7.322772 3.773964 -8.959774 0.455927 18.553405 -12.093917 -32.421460 0.799427 6.711185 -71.967434 22.230582 -5.061548 4.104413 -11.774409 6.742009 -2.319345 0.711381 -5.597707 20.354191 4.399640 -8.632585 34.582304 14.606012 -9.489193 -58.047126 47.266954 -70.363642 22.598273 16.725587 -49.302852 
0.364485 -0.089171 0.764823 150.713314 13.085793 109.775983 0.081042 -5.333178 -60.654551 -3.360005 24.602354 71.006673 17.122549 13.509418 -33.099311 0.000000 -0.000000 0.000000 -6.387613 -4.376069 -4.469018 3.811133 -4.720060 83.852889 5.964026 -6.025457 -2.908451 0.000000 -0.000000 0.000000 -1.605019 10.562991 33.031586 4.532521 -6.673630 5.275149 4.101874 -1.872563 2.739234 8.320388 6.254976 -12.016488 -1.038553 19.003302 -11.840588 -32.562983 -3.685263 4.675818 -70.376566 14.401992 2.308259 3.262070 -15.489311 8.049189 -2.179561 -0.784029 -5.749379 19.807678 7.101177 -8.315401 33.700629 16.636613 -7.290291 -55.041747 41.809177 -70.329160 22.430498 17.730045 -52.831978 
0.418468 0.000055 0.766188 152.019488 11.212159 110.831484 -1.888376 -8.139895 -54.789292 -3.076820 22.515010 74.701521 14.590611 13.811703 -34.650929 0.000000 -0.000000 0.000000 -8.721309 -0.417628 -23.074517 3.883654 -8.027251 102.586305 2.821520 -6.272038 -7.125717 0.000000 -0.000000 0.000000 -3.568125 8.069949 34.050745 4.834616 -5.842201 5.067657 3.065937 -2.511675 1.555353 9.535669 9.105142 -13.755269 -1.868629 15.679022 -12.481064 -30.935686 -9.646566 2.809829 -62.394427 6.300781 10.151082 5.647647 -20.636081 10.274850 -2.369549 -4.368577 -1.715577 20.305994 9.710056 -8.013528 29.311657 17.793359 -7.225364 -47.272997 36.017992 -65.859346 24.222545 18.140794 -54.737927 
0.473067 0.096228 0.769141 155.546256 10.961709 110.428841 -5.333319 -6.164749 -44.286107 -6.989583 16.428574 74.088749 12.061877 15.223842 -34.578950 0.000000 -0.000000 0.000000 -9.336297 0.837440 -40.646478 2.106485 -8.035281 109.696478 -0.317878 -9.073208 -11.057426 0.000000 -0.000000 0.000000 -2.533370 3.149519 36.499539 4.552889 -3.328162 1.972771 2.663420 -3.007069 2.213415 9.202085 9.076543 -14.412057 -1.278707 14.954335 -9.800750 -28.086971 -12.367456 0.666424 -54.622531 0.757766 11.299856 10.243162 -31.457859 10.581327 2.379440 -3.596550 4.480268 18.103826 12.083019 -8.330386 26.121440 16.761057 -7.747710 -40.484887 34.304789 -62.120274 22.366092 17.962295 -58.859416 
0.530446 0.200776 0.772644 161.222477 11.545108 110.560734 -4.489796 -2.461572 -32.688407 -11.679560 9.784097 71.579356 8.600312 13.750365 -32.018856 0.000000 -0.000000 0.000000 -11.581022 1.634899 -55.456272 -0.182536 -9.776964 104.941535 -0.924036 -9.493656 -17.008573 0.000000 -0.000000 0.000000 -0.741854 -2.819648 37.008531 5.382760 -1.426852 -0.337100 3.156966 -3.623861 3.098712 9.146467 10.999660 -14.277160 -2.016444 15.112126 -7.849988 -24.564732 -10.493550 -1.034853 -49.452769 -1.838764 10.821193 15.213182 -50.129346 4.525665 5.970442 -2.890843 -1.946551 16.392635 11.872364 -8.616962 24.069802 18.975849 -8.707247 -41.476249 35.742304 -61.864415 22.747058 15.986031 -54.560680 
0.586037 0.317874 0.776343 164.634354 13.024755 110.552314 -0.916220 1.362151 -19.062262 -15.143295 3.118388 64.789581 4.487423 11.684274 -26.959757 0.000000 -0.000000 0.000000 -15.007111 1.521769 -65.958384 1.097795 -12.152717 90.812222 0.078402 -6.214014 -19.854462 0.000000 -0.000000 0.000000 1.945986 -7.640748 34.419019 7.004692 0.412830 0.826737 3.537210 -3.962549 2.950799 8.914170 14.176621 -13.473331 -4.206677 14.476118 -6.167697 -21.284311 -8.250504 -1.641859 -48.871578 -1.224793 11.901596 21.394088 -63.064401 -0.552354 7.294436 -6.846699 -5.401360 14.433672 10.933890 -9.192157 23.800182 22.472837 -9.536018 -52.073742 39.297079 -64.708378 29.824096 14.944537 -45.671686 
0.638179 0.444455 0.777972 163.728921 14.432040 110.893043 0.912770 2.807396 -4.064995 -14.933835 -3.246349 51.539425 0.314019 9.815802 -17.623585 0.000000 -0.000000 0.000000 -17.191316 0.640357 -72.497301 6.445937 -11.671069 69.848829 2.736262 0.306363 -18.464110 0.000000 -0.000000 0.000000 4.943378 -10.502224 29.142715 8.086885 2.259978 2.815078 2.997338 -4.136337 3.540773 9.302771 17.650673 -12.073216 -7.980769 14.223411 -4.982214 -19.125834 -3.213326 -0.922713 -52.343503 1.479695 12.927829 17.614165 -72.335521 4.590463 8.513061 -6.204376 -8.609279 14.720515 8.849596 -10.025265 25.904785 32.250803 -7.301120 -72.172897 45.823615 -73.373857 25.722684 8.177663 -32.866230 
